<svg xmlns="http://www.w3.org/2000/svg" width="28" height="28" viewBox="0 0 28 28" fill="none">
  <path d="M6.64654 25.7886C3.4221 23.6748 1.35486 20.7424 0.44447 17.0436C-0.450389 13.4078 -0.0121474 9.90475 1.92396 6.66257C3.3256 4.3154 5.27406 2.53456 7.75499 1.35047C9.01796 0.74769 10.3383 0.329168 11.7201 0.139767C15.0512 -0.316816 18.1451 0.338094 20.9576 2.20996C23.1717 3.68354 24.8246 5.6421 25.9156 8.06386C26.836 10.1069 27.2101 12.2529 27.0583 14.4934C26.9198 16.538 26.3801 18.4583 25.354 20.2366C25.274 20.3753 25.2158 20.5321 25.077 20.6215C24.9648 20.6381 24.9113 20.5609 24.8529 20.5009C24.2779 19.9104 23.7102 19.3126 23.1277 18.7296C22.9343 18.536 22.9261 18.3786 23.055 18.1344C23.9931 16.3573 24.3103 14.4503 24.1154 12.467C23.8143 9.40309 22.4597 6.88885 20.0433 4.9697C18.4572 3.71004 16.6527 2.97181 14.6252 2.8102C11.2795 2.54353 8.40711 3.60552 6.02966 5.95599C4.37497 7.59192 3.3636 9.59573 3.04463 11.8961C2.62828 14.8986 3.32863 17.6643 5.03621 20.1714C5.10174 20.2676 5.15243 20.3813 5.2926 20.436C5.38963 20.3015 5.35236 20.1463 5.35253 20.0041C5.35426 18.5397 5.35798 17.0752 5.3426 15.6109C5.33959 15.3252 5.42321 15.1176 5.62604 14.923C7.23804 13.3764 8.84477 11.8243 10.4515 10.2722C11.364 9.39058 12.2768 8.50911 13.1812 7.61918C13.3353 7.46756 13.4436 7.43029 13.6085 7.59732C14.5229 8.52333 15.4388 9.44795 16.3655 10.3615C16.5765 10.5694 16.5933 10.7259 16.3661 10.9199C16.2015 11.0604 16.0475 11.2151 15.9012 11.3749C15.7344 11.5572 15.5932 11.5663 15.4138 11.381C14.9615 10.9136 14.4862 10.4683 14.0398 9.99556C13.841 9.78508 13.7112 9.76227 13.4916 9.97873C12.1711 11.2803 10.8367 12.5677 9.5074 13.8603C9.23542 14.1248 8.97418 14.4011 8.69118 14.6531C8.49677 14.8262 8.42503 15.0172 8.42552 15.2778C8.43231 18.9014 8.42997 22.5249 8.42753 26.1485C8.42742 26.3086 8.45775 26.4729 8.3762 26.6777C7.74432 26.5011 7.21922 26.1223 6.64654 25.7886Z" fill="black"/>
  <path d="M10.0562 4.83116C12.0411 4.03196 14.0625 3.79221 16.0952 4.4218C19.435 5.45624 21.623 7.67103 22.256 11.1439C22.717 13.6725 21.9437 15.9058 19.9789 17.6525C19.6693 17.9277 19.3107 18.1323 18.9437 18.3231C18.6201 18.4914 18.6112 18.5363 18.853 18.7871C20.0197 19.9971 21.1875 21.2059 22.3582 22.412C24.0503 24.1551 25.7455 25.8953 27.4386 27.6376C27.5126 27.7137 27.6026 27.7847 27.5906 27.9121C27.5037 28.0295 27.3748 27.9952 27.2609 27.9954C25.7962 27.9978 24.3316 27.9955 22.867 27.9989C22.6742 27.9993 22.515 27.9646 22.3711 27.8147C20.5541 25.9215 18.7324 24.0328 16.9107 22.1441C16.1126 21.3167 15.3133 20.4904 14.5104 19.6677C14.4074 19.5621 14.3184 19.4309 14.1594 19.3852C14.0271 19.4831 14.0744 19.6225 14.0743 19.7442C14.0726 20.7965 14.0669 21.8489 14.0817 22.9011C14.0861 23.212 13.9814 23.3243 13.6673 23.3165C12.9734 23.2992 12.2786 23.3019 11.5845 23.3166C11.3138 23.3223 11.2125 23.2152 11.2126 22.9576C11.2137 20.8637 11.2141 18.7698 11.2068 16.676C11.2058 16.3898 11.3486 16.3361 11.5939 16.337C12.8198 16.3413 14.046 16.3187 15.2717 16.3365C17.7096 16.3718 19.3873 14.0768 19.1673 11.8774C18.9335 9.53969 17.4907 8.15746 15.4634 7.25558C14.2967 6.73659 13.0721 6.69115 11.8268 6.85439C11.6027 6.88378 11.4644 7.04809 11.3205 7.18708C9.99418 8.46798 8.67533 9.75659 7.35283 11.0414C6.48196 11.8875 5.60881 12.7312 4.73593 13.5752C4.69919 13.6107 4.65482 13.6384 4.61497 13.6689C4.44315 13.5634 4.49692 13.4073 4.49934 13.2783C4.57389 9.30593 6.49891 6.54541 10.0562 4.83116Z" fill="black"/>
  <path d="M13.6167 27.8864C12.5237 27.9223 11.4916 27.7369 10.4642 27.5C10.2293 27.4458 10.1422 27.3356 10.1451 27.0984C10.1544 26.3393 10.1452 25.5799 10.1493 24.8207C10.151 24.4928 10.1961 24.4688 10.5208 24.578C11.9831 25.0697 13.4815 25.199 15.0091 25.0147C15.1505 24.9977 15.2656 25.0131 15.3656 25.1149C16.0264 25.788 16.6878 26.4606 17.3469 27.1354C17.3821 27.1714 17.3987 27.2255 17.46 27.3365C16.199 27.742 14.94 27.9128 13.6167 27.8864Z" fill="black"/>
  <path d="M12.8974 14.7952C12.292 14.7934 12.2959 14.7933 12.2891 14.208C12.2831 13.6887 12.2727 13.1693 12.2537 12.6504C12.2428 12.3546 12.3449 12.2216 12.6658 12.2262C13.548 12.2388 13.4243 12.183 13.4279 12.9638C13.43 13.429 13.4275 13.895 13.4019 14.3593C13.3778 14.7969 13.3633 14.7961 12.8974 14.7952Z" fill="black"/>
  <path d="M15.1915 12.7692C15.1912 13.3525 15.1833 13.9043 15.1941 14.4557C15.199 14.7046 15.1128 14.8054 14.8553 14.7979C14.0198 14.7738 14.0659 14.9417 14.0676 14.0248C14.0685 13.538 14.074 13.0512 14.0677 12.5646C14.0647 12.3316 14.1619 12.2227 14.3961 12.234C14.4932 12.2387 14.5907 12.2322 14.6881 12.232C15.1905 12.2311 15.1905 12.2312 15.1915 12.7692Z" fill="black"/>
</svg>