<svg xmlns="http://www.w3.org/2000/svg" width="24" height="25" viewBox="0 0 24 25" fill="none">
  <g clip-path="url(#clip0_6357_5822)">
    <path d="M22.1676 15.8628L18.2136 14.5448V13.3358C17.9658 13.4693 17.7068 13.5811 17.4396 13.6698V14.7698C17.3515 15.1139 17.1513 15.419 16.8707 15.6368C16.59 15.8547 16.2449 15.9729 15.8896 15.9729C15.5343 15.9729 15.1892 15.8547 14.9085 15.6368C14.6279 15.419 14.4277 15.1139 14.3396 14.7698V13.6858C14.2326 13.6498 14.1226 13.6248 14.0176 13.5808C13.8627 13.5079 13.7118 13.4268 13.5656 13.3378V14.5378L9.61061 15.8608C9.42068 15.9261 9.23831 16.0116 9.06661 16.1158C9.00361 16.1538 8.95161 16.2058 8.89261 16.2488C8.79086 16.3166 8.69396 16.3915 8.60261 16.4728C8.5314 16.5475 8.46462 16.6263 8.40261 16.7088C8.34142 16.7758 8.28368 16.8459 8.22961 16.9188C8.14433 17.0518 8.07072 17.192 8.00961 17.3378C7.99861 17.3638 7.98161 17.3848 7.97161 17.4108C8.08461 17.6238 8.18161 17.8438 8.26161 18.0708H8.26061C8.18048 17.8439 8.08455 17.6233 7.97161 17.4108C7.65688 16.7625 7.16799 16.2139 6.56089 15.8256C5.95378 15.4374 5.25112 15.2246 4.53061 15.2108H4.43061C3.85082 15.2062 3.27581 15.3158 2.7384 15.5335C2.20098 15.7511 1.7117 16.0724 1.29848 16.4792C0.885259 16.8859 0.556194 17.37 0.330073 17.9039C0.103952 18.4378 -0.0147962 19.011 -0.0193925 19.5908C-0.0239888 20.1706 0.0856573 20.7456 0.303285 21.283C0.520914 21.8204 0.842262 22.3097 1.24898 22.7229C1.6557 23.1361 2.13983 23.4652 2.67372 23.6913C3.20762 23.9174 3.78082 24.0362 4.36061 24.0408H4.43061C5.07315 24.0407 5.70718 23.8938 6.2843 23.6113C6.86142 23.3288 7.36637 22.9182 7.76061 22.4108V24.1008C7.76061 24.2069 7.80275 24.3086 7.87776 24.3836C7.95278 24.4586 8.05452 24.5008 8.16061 24.5008H23.6196C23.7257 24.5008 23.8274 24.4586 23.9025 24.3836C23.9775 24.3086 24.0196 24.2069 24.0196 24.1008V18.4328C24.0195 17.8643 23.8406 17.3102 23.5082 16.849C23.1759 16.3878 22.7069 16.0428 22.1676 15.8628ZM7.92961 21.0908H7.91961C7.86482 21.0902 7.81045 21.1004 7.75961 21.1208C7.68633 21.1611 7.62468 21.2197 7.58061 21.2908C7.29489 21.8844 6.84805 22.3858 6.29107 22.7376C5.73409 23.0895 5.08941 23.2777 4.43061 23.2808H4.37061C3.45419 23.262 2.5781 22.9004 1.91532 22.2672C1.25254 21.634 0.851223 20.7754 0.790608 19.8608C0.753917 19.3539 0.824947 18.8451 0.999026 18.3676C1.17311 17.8902 1.44629 17.4551 1.80061 17.0908C2.14277 16.739 2.55152 16.4587 3.00305 16.2665C3.45457 16.0742 3.93985 15.9737 4.43061 15.9708H4.51961C5.22487 15.9816 5.90548 16.232 6.44961 16.6808C7.01673 17.1799 7.42667 17.8331 7.62961 18.5608C7.6546 18.6377 7.69944 18.7067 7.75961 18.7608C7.82842 18.8047 7.90798 18.8289 7.98961 18.8308H8.53961L15.2696 18.8208L16.4596 20.0708L15.2996 21.1808C15.2652 21.2072 15.223 21.2213 15.1796 21.2208H15.1296C15.1296 21.2108 15.1096 21.2008 15.0696 21.1508L14.5796 20.6408C14.5084 20.5695 14.4123 20.5287 14.3116 20.5268C14.2109 20.5249 14.1134 20.5622 14.0396 20.6308L13.7696 20.8908L13.1596 20.2508C13.1258 20.216 13.0854 20.1884 13.0407 20.1695C12.9961 20.1506 12.9481 20.1408 12.8996 20.1408H12.8896C12.7938 20.1421 12.7016 20.1775 12.6296 20.2408L11.9896 20.8508L11.5596 20.4008C11.5253 20.3633 11.4836 20.3333 11.4371 20.3127C11.3907 20.292 11.3404 20.2812 11.2896 20.2808H11.2796C11.1838 20.2821 11.0916 20.3175 11.0196 20.3808L10.5596 20.8208L10.1296 20.3608C10.0958 20.326 10.0554 20.2984 10.0107 20.2795C9.96608 20.2606 9.91809 20.2508 9.86961 20.2508H9.85961C9.81023 20.2488 9.76094 20.2566 9.7146 20.2738C9.66825 20.2909 9.62577 20.3171 9.58961 20.3508L8.78961 21.1208L8.53961 21.1108L7.92961 21.0908ZM23.2436 23.7308H20.9196V20.7138C20.9223 20.6616 20.9143 20.6095 20.8962 20.5605C20.878 20.5116 20.8502 20.4668 20.8142 20.429C20.7782 20.3911 20.7349 20.361 20.687 20.3404C20.639 20.3198 20.5873 20.3092 20.5351 20.3092C20.4829 20.3092 20.4312 20.3198 20.3833 20.3404C20.3353 20.361 20.292 20.3911 20.256 20.429C20.2201 20.4668 20.1922 20.5116 20.174 20.5605C20.1559 20.6095 20.1479 20.6616 20.1506 20.7138V23.7268H8.54061V21.8708L8.93061 21.8808H8.94061C9.03642 21.8795 9.12863 21.844 9.20061 21.7808L9.84061 21.1708L10.2806 21.6208C10.4246 21.7688 10.6606 21.7728 10.8106 21.6308L11.2706 21.2008L11.7006 21.6508C11.7701 21.7237 11.8657 21.766 11.9664 21.7684C12.0671 21.7709 12.1647 21.7332 12.2376 21.6638L12.2406 21.6608L12.8806 21.0608L13.4806 21.6908C13.5506 21.7632 13.6459 21.8057 13.7466 21.8095C13.8472 21.8132 13.9454 21.7778 14.0206 21.7108L14.2906 21.4508L14.5106 21.6808C14.588 21.7755 14.6857 21.8517 14.7965 21.9036C14.9073 21.9555 15.0283 21.9819 15.1506 21.9808H15.1806C15.4078 21.979 15.6272 21.8976 15.8006 21.7508L17.2606 20.3508C17.2985 20.319 17.3289 20.2792 17.3497 20.2342C17.3704 20.1893 17.381 20.1403 17.3806 20.0908C17.3807 19.9869 17.3414 19.8868 17.2706 19.8108L15.7106 18.1708C15.6355 18.0985 15.5348 18.059 15.4306 18.0608L8.57161 18.0708C8.60161 17.9298 8.64761 17.7928 8.70761 17.6618C8.73161 17.6088 8.75761 17.5618 8.78561 17.5068C8.83761 17.4118 8.89761 17.3218 8.96461 17.2368C8.99461 17.1998 9.02361 17.1608 9.05661 17.1258C9.14261 17.0338 9.23761 16.9508 9.33961 16.8768C9.36561 16.8578 9.38861 16.8348 9.41661 16.8178C9.55461 16.7268 9.70461 16.6538 9.86161 16.6008L12.6936 15.6528L13.7126 15.3128C13.8935 15.7415 14.1967 16.1075 14.5845 16.3647C14.9722 16.622 15.4273 16.7592 15.8926 16.7592C16.358 16.7592 16.813 16.622 17.2007 16.3647C17.5885 16.1075 17.8918 15.7415 18.0726 15.3128L21.9196 16.6008C22.305 16.7292 22.6403 16.9756 22.8779 17.3051C23.1155 17.6346 23.2435 18.0305 23.2436 18.4368V23.7308ZM14.0206 8.35078H14.7706C14.7709 8.05435 14.6535 7.76993 14.4443 7.55994C14.235 7.34996 13.951 7.23158 13.6546 7.23078H13.6506C13.3553 7.23642 13.0737 7.35623 12.8649 7.56506C12.6561 7.77389 12.5362 8.0555 12.5306 8.35078H13.2706C13.2695 8.30837 13.2768 8.26616 13.2923 8.22666C13.3077 8.18715 13.331 8.15115 13.3606 8.12078V8.11078C13.3965 8.06925 13.4411 8.0361 13.4912 8.01364C13.5413 7.99118 13.5957 7.97996 13.6506 7.98078C13.6991 7.98065 13.7471 7.99006 13.7919 8.00849C13.8367 8.02691 13.8775 8.05398 13.9118 8.08815C13.9462 8.12232 13.9735 8.16293 13.9921 8.20765C14.0108 8.25237 14.0205 8.30032 14.0206 8.34878V8.35078ZM18.1676 7.19578C18.0147 7.19136 17.8626 7.21821 17.7204 7.27469C17.5783 7.33117 17.4492 7.41609 17.3411 7.52423C17.2329 7.63238 17.148 7.76147 17.0915 7.9036C17.035 8.04574 17.0082 8.1979 17.0126 8.35078H17.7606C17.7605 8.3018 17.77 8.25327 17.7886 8.20797C17.8072 8.16266 17.8346 8.12147 17.8691 8.08674C17.9037 8.05201 17.9447 8.02442 17.9899 8.00556C18.0351 7.98669 18.0836 7.97691 18.1326 7.97678H18.1336C18.1826 7.97665 18.2311 7.98617 18.2764 8.00479C18.3217 8.02342 18.3629 8.05078 18.3977 8.08532C18.4324 8.11987 18.46 8.16091 18.4788 8.20612C18.4977 8.25132 18.5075 8.2998 18.5076 8.34878V8.35078H19.2556C19.2642 8.05342 19.1545 7.76478 18.9505 7.54823C18.7465 7.33169 18.465 7.20493 18.1676 7.19578Z" fill="url(#paint0_linear_6357_5822)"/>
    <path d="M1.37 9.85026C1.39 9.86026 1.41 9.86026 1.42 9.87026C1.465 9.91026 1.521 9.93826 1.58 9.95026C1.609 9.95826 1.64 9.96226 1.67 9.96026C1.72927 9.95422 1.7869 9.93727 1.84 9.91026C1.86 9.90026 1.88 9.90026 1.9 9.89026V14.1103C1.90288 14.2136 1.94658 14.3116 2.02155 14.3828C2.09651 14.4541 2.19663 14.4927 2.3 14.4903H11.1C11.2012 14.4921 11.2991 14.4538 11.3722 14.3838C11.4453 14.3137 11.4876 14.2175 11.49 14.1163V11.1203C11.9241 12.065 12.6534 12.843 13.568 13.3373C13.714 13.4263 13.865 13.5073 14.02 13.5803C14.125 13.6243 14.235 13.6493 14.342 13.6853C15.2015 13.9774 16.1254 14.0241 17.01 13.8203C17.157 13.7853 17.295 13.7203 17.439 13.6693C17.706 13.5803 17.965 13.4693 18.213 13.3353C18.443 13.2183 18.662 13.0833 18.87 12.9303C19.8527 12.165 20.5042 11.0518 20.69 9.82026C21.1762 9.73842 21.6102 9.46729 21.8969 9.06621C22.1837 8.66514 22.2998 8.16679 22.22 7.68026C22.1689 7.38641 22.049 7.10884 21.87 6.87026V6.48026C21.8696 4.9937 21.3155 3.56059 20.3158 2.46039C19.316 1.3602 17.9424 0.671802 16.4627 0.529448C14.9829 0.387094 13.5032 0.800988 12.3121 1.69042C11.121 2.57985 10.3038 3.88104 10.02 5.34026L6.931 2.86026C6.86642 2.80235 6.78274 2.77033 6.696 2.77033C6.60926 2.77033 6.52558 2.80235 6.461 2.86026L4.081 4.76026V3.93026C4.08179 3.87983 4.07265 3.82974 4.05408 3.78284C4.03551 3.73595 4.00789 3.69317 3.97279 3.65696C3.93769 3.62074 3.89579 3.5918 3.8495 3.57177C3.80321 3.55175 3.75343 3.54104 3.703 3.54026H1.861C1.75757 3.54026 1.65837 3.58135 1.58523 3.65449C1.51209 3.72763 1.471 3.82682 1.471 3.93026V6.87026L0.161001 7.92026C0.120881 7.95377 0.0877724 7.99486 0.0635759 8.0412C0.0393794 8.08753 0.024571 8.13819 0.0200007 8.19026C0.0149436 8.29315 0.0509069 8.39385 0.120001 8.47026L1.37 9.85026ZM7.631 13.7203H5.761V10.3903H7.631V13.7203ZM20.001 9.10026C19.9995 10.1166 19.622 11.0965 18.9411 11.8511C18.2603 12.6056 17.3242 13.0815 16.3134 13.1871C15.3025 13.2927 14.2884 13.0204 13.4663 12.4228C12.6442 11.8251 12.0724 10.9444 11.861 9.95026C11.8089 9.6699 11.7821 9.38542 11.781 9.10026V6.85026H12.531C12.5753 6.85319 12.6197 6.84636 12.661 6.83026L15.141 5.90026V7.23026C15.1448 7.32889 15.1864 7.42227 15.2571 7.49113C15.3278 7.55999 15.4223 7.59905 15.521 7.60026C15.5906 7.59933 15.6591 7.58221 15.721 7.55026L18.401 5.87026L18.941 6.69026C18.9776 6.74059 19.0258 6.78139 19.0815 6.80923C19.1372 6.83707 19.1988 6.85114 19.261 6.85026H20.001V9.10026ZM21.437 8.34526C21.381 8.50526 21.29 8.65026 21.17 8.77026C21.0506 8.88645 20.9073 8.97518 20.75 9.03026V6.92026C21.333 7.12426 21.641 7.76226 21.437 8.34526ZM10.711 5.89026C10.8539 4.57767 11.49 3.36836 12.4907 2.50695C13.4913 1.64555 14.7818 1.19636 16.101 1.25026C17.4131 1.30229 18.6574 1.84684 19.5859 2.77535C20.5144 3.70387 21.059 4.94817 21.111 6.26026C20.8803 6.16131 20.632 6.11028 20.381 6.11026H19.461L18.821 5.15026C18.7646 5.07218 18.6813 5.01773 18.5871 4.99742C18.4929 4.97711 18.3946 4.99237 18.311 5.04026L15.891 6.56026V5.36026C15.8906 5.29964 15.8759 5.23997 15.8481 5.1861C15.8203 5.13223 15.7802 5.08569 15.731 5.05026C15.6815 5.01716 15.6249 4.99627 15.5658 4.98932C15.5067 4.98237 15.4468 4.98954 15.391 5.01026L12.461 6.11026H11.411C11.2832 6.10805 11.1556 6.12148 11.031 6.15026C10.907 6.17026 10.785 6.20726 10.671 6.26026C10.6688 6.13574 10.6822 6.01143 10.711 5.89026ZM10.611 7.19026C10.688 7.11526 10.776 7.05126 10.871 7.00026C10.9212 6.96768 10.9748 6.94085 11.031 6.92026V9.03026C10.8748 8.97291 10.732 8.88446 10.611 8.77026C10.5015 8.66025 10.4157 8.52895 10.3589 8.38447C10.3022 8.23999 10.2756 8.0854 10.281 7.93026C10.29 7.65026 10.408 7.38426 10.611 7.19026ZM10.731 9.72026V13.7203H8.401V10.0203C8.39979 9.91626 8.35861 9.81672 8.28601 9.74225C8.2134 9.66778 8.11493 9.6241 8.011 9.62026H5.381C5.27771 9.62597 5.18033 9.67024 5.10811 9.74431C5.03589 9.81838 4.9941 9.91686 4.991 10.0203V13.7203H2.661V9.26026L6.691 6.03026L9.581 8.34026C9.701 8.96726 10.136 9.48826 10.731 9.72026ZM2.241 4.31026H3.311V5.38526L2.241 6.24726V4.31026ZM1.631 7.72026L2.491 7.03026H2.486L3.314 6.36226L4.081 5.75426L6.691 3.65426L9.92 6.24026C9.912 6.32026 9.908 6.40026 9.91 6.48026V6.87026C9.785 7.03026 9.693 7.21426 9.64 7.41026L6.931 5.24026C6.86366 5.18836 6.78102 5.16022 6.696 5.16022C6.61098 5.16022 6.52835 5.18836 6.461 5.24026L4.082 7.14926L3.274 7.80026H3.271L1.701 9.06026L0.961001 8.25026L1.631 7.72026Z" fill="url(#paint1_linear_6357_5822)"/>
    <path d="M15.8921 10.9668C15.1711 10.9668 14.7701 10.6868 14.7701 10.5938H14.0201C14.0201 11.2327 14.8201 11.7148 15.8891 11.7148C16.9581 11.7148 17.7611 11.2327 17.7611 10.5938H17.0131C17.0131 10.6868 16.6131 10.9668 15.8921 10.9668ZM3.51112 18.0608C3.33515 17.9938 3.14928 17.9567 2.96112 17.9507H2.92012C2.49185 17.9501 2.08037 18.1172 1.77382 18.4163C1.46728 18.7154 1.29005 19.1226 1.28012 19.5507C1.26612 19.9878 1.43212 20.4107 1.74012 20.7207C2.03612 21.0367 2.44712 21.2207 2.88012 21.2308H2.92012C3.02412 21.2308 3.12812 21.2207 3.23012 21.2007C3.57917 21.1327 3.89667 20.9531 4.13481 20.689C4.37296 20.4249 4.51887 20.0906 4.55057 19.7363C4.58226 19.3821 4.49804 19.0272 4.31057 18.725C4.1231 18.4228 3.84254 18.1897 3.51112 18.0608ZM3.53112 20.2107L3.52012 20.2207C3.43571 20.3011 3.33746 20.3654 3.23012 20.4108C3.22012 20.4108 3.19012 20.4208 3.17012 20.4208C3.1529 20.4201 3.13577 20.4235 3.12012 20.4308L3.08012 20.4407C3.02422 20.4547 2.96741 20.4647 2.91012 20.4707H2.90012C2.66932 20.4639 2.45039 20.367 2.29012 20.2007C2.20827 20.1179 2.14395 20.0194 2.101 19.9112C2.05805 19.803 2.03734 19.6872 2.04012 19.5708C2.04672 19.337 2.14347 19.1148 2.31012 18.9507C2.47703 18.7985 2.69419 18.713 2.92012 18.7107H2.94012C3.11323 18.7125 3.28187 18.7659 3.42447 18.8641C3.56707 18.9622 3.67714 19.1007 3.7406 19.2618C3.80406 19.4229 3.81803 19.5992 3.78071 19.7682C3.74339 19.9373 3.65649 20.0914 3.53112 20.2107Z" fill="url(#paint2_linear_6357_5822)"/>
  </g>
  <defs>
    <linearGradient id="paint0_linear_6357_5822" x1="24.0196" y1="24.5008" x2="-2.54434" y2="18.6411" gradientUnits="userSpaceOnUse">
      <stop stop-color="#1565C0"/>
      <stop offset="1" stop-color="#4A90E2"/>
    </linearGradient>
    <linearGradient id="paint1_linear_6357_5822" x1="22.2446" y1="14.4904" x2="-1.96846" y2="8.38132" gradientUnits="userSpaceOnUse">
      <stop stop-color="#1565C0"/>
      <stop offset="1" stop-color="#4A90E2"/>
    </linearGradient>
    <linearGradient id="paint2_linear_6357_5822" x1="17.7611" y1="21.2307" x2="-0.247684" y2="16.7996" gradientUnits="userSpaceOnUse">
      <stop stop-color="#1565C0"/>
      <stop offset="1" stop-color="#4A90E2"/>
    </linearGradient>
    <clipPath id="clip0_6357_5822">
      <rect width="24" height="24" fill="white" transform="translate(0 0.5)"/>
    </clipPath>
  </defs>
</svg>