<svg xmlns="http://www.w3.org/2000/svg" width="21" height="21" viewBox="0 0 21 21" fill="none">
  <path d="M9.33154 8.86228C9.33154 9.31828 9.45821 9.38584 9.74532 9.48717L10.176 9.63917V8.20361H9.92265C9.60177 8.20361 9.33154 8.49917 9.33154 8.86228Z" fill="#4A90E2"/>
  <path d="M11.4424 12.8482H11.6957C12.025 12.8482 12.2868 12.5526 12.2868 12.1895C12.2868 11.7335 12.1602 11.6659 11.873 11.5646L11.4424 11.4126V12.8482Z" fill="#4A90E2"/>
  <path d="M17.2101 5.02021L15.479 6.75132C15.3523 6.87799 15.1919 6.9371 15.0314 6.9371C14.871 6.9371 14.7105 6.87799 14.5839 6.75132C14.339 6.50643 14.339 6.1011 14.5839 5.85621L16.315 4.1251C14.8287 2.85843 12.9119 2.08154 10.8092 2.08154C6.14786 2.08154 2.36475 5.86465 2.36475 10.526C2.36475 15.1873 6.14786 18.9704 10.8092 18.9704C15.4705 18.9704 19.2536 15.1873 19.2536 10.526C19.2536 8.42332 18.4767 6.50643 17.2101 5.02021ZM12.287 10.374C12.8274 10.5682 13.5536 10.9567 13.5536 12.198C13.5536 13.2535 12.7176 14.1233 11.6959 14.1233H11.4425V14.3344C11.4425 14.6807 11.1554 14.9678 10.8092 14.9678C10.463 14.9678 10.1759 14.6807 10.1759 14.3344V14.1233H10.1083C8.98519 14.1233 8.06475 13.1775 8.06475 12.0122C8.06475 11.6575 8.35186 11.3704 8.69808 11.3704C9.0443 11.3704 9.33141 11.6575 9.33141 12.0038C9.33141 12.4682 9.67764 12.8482 10.1083 12.8482H10.1759V10.9735L9.33141 10.678C8.79097 10.4838 8.06475 10.0953 8.06475 8.85399C8.06475 7.79843 8.90075 6.92865 9.92252 6.92865H10.1759V6.72599C10.1759 6.37977 10.463 6.09265 10.8092 6.09265C11.1554 6.09265 11.4425 6.37977 11.4425 6.72599V6.9371H11.5101C12.6332 6.9371 13.5536 7.88288 13.5536 9.04821C13.5536 9.39443 13.2665 9.68154 12.9203 9.68154C12.5741 9.68154 12.287 9.39443 12.287 9.04821C12.287 8.58377 11.9407 8.20377 11.5101 8.20377H11.4425V10.0784L12.287 10.374Z" fill="#4A90E2"/>
  <path d="M19.8365 1.83669C19.7689 1.68469 19.6507 1.55802 19.4902 1.49046C19.4142 1.46513 19.3382 1.44824 19.2538 1.44824H15.876C15.5298 1.44824 15.2427 1.73535 15.2427 2.08158C15.2427 2.4278 15.5298 2.71491 15.876 2.71491H17.7253L16.3151 4.12513C16.636 4.4038 16.9316 4.69935 17.2102 5.02024L18.6205 3.61002V5.45935C18.6205 5.80558 18.9076 6.09269 19.2538 6.09269C19.6 6.09269 19.8871 5.80558 19.8871 5.45935V2.08158C19.8871 1.99713 19.8702 1.92113 19.8365 1.83669Z" fill="#4A90E2"/>
</svg>