<svg xmlns="http://www.w3.org/2000/svg" width="40" height="40" viewBox="0 0 40 40" fill="none">
  <mask id="path-1-outside-1_6357_4285" maskUnits="userSpaceOnUse" x="2.4707" y="1.25635" width="35" height="37" fill="black">
    <rect fill="white" x="2.4707" y="1.25635" width="35" height="37"/>
    <path d="M34.18 8.90595H27.213V2.95675C27.213 2.57051 26.8988 2.25635 26.5126 2.25635H22.2286C21.8424 2.25635 21.5282 2.57059 21.5282 2.95675V8.90603H14.9832L8.49454 2.41739C8.41811 2.34058 8.32054 2.28827 8.21427 2.26713C8.108 2.24599 7.99783 2.25697 7.89782 2.29867C7.79763 2.33991 7.71198 2.41003 7.65177 2.50012C7.59156 2.5902 7.55953 2.69616 7.55974 2.80451V8.90595H5.81774C4.52358 8.90595 3.4707 9.95883 3.4707 11.253V28.3925C3.4707 29.6867 4.52358 30.7396 5.81774 30.7396H16.1797C15.9331 31.3558 15.6468 31.9553 15.3225 32.5343C15.0486 33.0218 14.7483 33.494 14.4229 33.9488H10.5644C9.39574 33.9488 8.44502 34.8996 8.44502 36.0682V37.4C8.44502 37.4451 8.45391 37.4898 8.47117 37.5315C8.48843 37.5731 8.51372 37.611 8.54561 37.6429C8.57751 37.6748 8.61537 37.7001 8.65704 37.7173C8.6987 37.7346 8.74336 37.7435 8.78846 37.7435H31.2093C31.2544 37.7435 31.299 37.7346 31.3407 37.7173C31.3824 37.7001 31.4202 37.6748 31.4521 37.6429C31.484 37.611 31.5093 37.5731 31.5266 37.5315C31.5438 37.4898 31.5527 37.4451 31.5527 37.4V36.0682C31.5527 34.8996 30.6019 33.9488 29.4333 33.9488H25.5749C25.2495 33.494 24.9492 33.0218 24.6753 32.5343C24.351 31.9553 24.0647 31.3558 23.8181 30.7396H34.1801C35.4742 30.7396 36.5271 29.6867 36.5271 28.3925V11.2531C36.527 9.95883 35.4741 8.90595 34.18 8.90595ZM22.2285 2.94323H26.5125C26.5191 2.94323 26.5261 2.95011 26.5261 2.95675V20.449L22.2151 16.138V13.3327H23.7385C23.8296 13.3327 23.917 13.2965 23.9814 13.2321C24.0458 13.1677 24.082 13.0803 24.082 12.9892C24.082 12.8981 24.0458 12.8108 23.9814 12.7464C23.917 12.682 23.8296 12.6458 23.7385 12.6458H22.2151V7.49811H23.7385C23.8296 7.49811 23.917 7.46192 23.9814 7.39752C24.0458 7.33311 24.082 7.24575 24.082 7.15467C24.082 7.06358 24.0458 6.97623 23.9814 6.91182C23.917 6.84741 23.8296 6.81123 23.7385 6.81123H22.2151V2.95675C22.2151 2.95003 22.2219 2.94323 22.2285 2.94323ZM21.5281 9.59291V15.451L15.6701 9.59291H21.5281ZM31.5535 26.4478H26.1769V24.9243C26.1769 24.8332 26.1407 24.7458 26.0763 24.6814C26.0119 24.617 25.9245 24.5808 25.8334 24.5808C25.7423 24.5808 25.655 24.617 25.5906 24.6814C25.5262 24.7458 25.49 24.8332 25.49 24.9243V26.4478H20.3424V24.9243C20.3424 24.8332 20.3062 24.7458 20.2418 24.6814C20.1774 24.617 20.09 24.5808 19.9989 24.5808C19.9079 24.5808 19.8205 24.617 19.7561 24.6814C19.6917 24.7458 19.6555 24.8332 19.6555 24.9243V26.4478H14.508V24.9243C14.508 24.8332 14.4718 24.7458 14.4074 24.6814C14.343 24.617 14.2556 24.5808 14.1645 24.5808C14.0735 24.5808 13.9861 24.617 13.9217 24.6814C13.8573 24.7458 13.8211 24.8332 13.8211 24.9243V26.4478H8.26046C8.25689 26.4476 8.25351 26.4461 8.25098 26.4436C8.24846 26.4411 8.24696 26.4377 8.24678 26.4341V22.5799H9.7703C9.86139 22.5799 9.94874 22.5437 10.0132 22.4793C10.0776 22.4149 10.1137 22.3275 10.1137 22.2364C10.1137 22.1453 10.0776 22.058 10.0132 21.9936C9.94874 21.9292 9.86139 21.893 9.7703 21.893H8.24678V16.7455H9.7703C9.86139 16.7455 9.94874 16.7093 10.0132 16.6449C10.0776 16.5805 10.1137 16.4931 10.1137 16.402C10.1137 16.3109 10.0776 16.2236 10.0132 16.1592C9.94874 16.0948 9.86139 16.0586 9.7703 16.0586H8.24678V10.911H9.7703C9.86139 10.911 9.94874 10.8748 10.0132 10.8104C10.0776 10.746 10.1137 10.6586 10.1137 10.5675C10.1137 10.4765 10.0776 10.3891 10.0132 10.3247C9.94874 10.2603 9.86139 10.2241 9.7703 10.2241H8.24678V3.14091L31.5535 26.4478ZM30.8658 36.0683V37.0567H9.1319V36.0683C9.1319 35.2784 9.77446 34.6359 10.5643 34.6359H29.4333C30.2232 34.6358 30.8658 35.2784 30.8658 36.0683ZM24.076 32.8701C24.283 33.2383 24.5045 33.5982 24.7398 33.9489H15.2579C15.4933 33.5982 15.7147 33.2383 15.9217 32.8701C16.3054 32.1853 16.638 31.4733 16.917 30.7396H23.0807C23.3596 31.4733 23.6923 32.1854 24.076 32.8701ZM35.8401 28.3925C35.8401 29.3079 35.0953 30.0527 34.1801 30.0527H5.81774C4.90238 30.0527 4.15766 29.3079 4.15766 28.3925V11.2531C4.15766 10.3376 4.90238 9.59291 5.81774 9.59291H7.55974V26.434C7.55974 26.8203 7.87406 27.1347 8.2603 27.1347H31.8898C31.9982 27.1349 32.1041 27.1028 32.1942 27.0427C32.2843 26.9825 32.3545 26.8968 32.3957 26.7967C32.4374 26.6966 32.4484 26.5865 32.4272 26.4802C32.4061 26.3739 32.3538 26.2763 32.277 26.1999L27.213 21.1359V9.59291H34.18C35.0953 9.59291 35.8401 10.3376 35.8401 11.2531L35.8401 28.3925ZM13.2089 22.1861H19.943C20.0514 22.1863 20.1573 22.1543 20.2474 22.0941C20.3375 22.0339 20.4077 21.9483 20.4489 21.8481C20.4906 21.7481 20.5016 21.6379 20.4804 21.5316C20.4593 21.4254 20.407 21.3278 20.3302 21.2513L13.4431 14.3642C13.3667 14.2874 13.2691 14.235 13.1628 14.2139C13.0564 14.1927 12.9463 14.2037 12.8462 14.2455C12.7461 14.2867 12.6604 14.3569 12.6002 14.4469C12.5401 14.537 12.508 14.643 12.5082 14.7513V21.4855C12.5083 21.8719 12.8225 22.1861 13.2089 22.1861ZM13.1952 15.0878L19.6065 21.4991H13.2088C13.2052 21.499 13.2019 21.4974 13.1994 21.4949C13.1968 21.4924 13.1954 21.489 13.1952 21.4855V15.0878Z"/>
  </mask>
  <path d="M34.18 8.90595H27.213V2.95675C27.213 2.57051 26.8988 2.25635 26.5126 2.25635H22.2286C21.8424 2.25635 21.5282 2.57059 21.5282 2.95675V8.90603H14.9832L8.49454 2.41739C8.41811 2.34058 8.32054 2.28827 8.21427 2.26713C8.108 2.24599 7.99783 2.25697 7.89782 2.29867C7.79763 2.33991 7.71198 2.41003 7.65177 2.50012C7.59156 2.5902 7.55953 2.69616 7.55974 2.80451V8.90595H5.81774C4.52358 8.90595 3.4707 9.95883 3.4707 11.253V28.3925C3.4707 29.6867 4.52358 30.7396 5.81774 30.7396H16.1797C15.9331 31.3558 15.6468 31.9553 15.3225 32.5343C15.0486 33.0218 14.7483 33.494 14.4229 33.9488H10.5644C9.39574 33.9488 8.44502 34.8996 8.44502 36.0682V37.4C8.44502 37.4451 8.45391 37.4898 8.47117 37.5315C8.48843 37.5731 8.51372 37.611 8.54561 37.6429C8.57751 37.6748 8.61537 37.7001 8.65704 37.7173C8.6987 37.7346 8.74336 37.7435 8.78846 37.7435H31.2093C31.2544 37.7435 31.299 37.7346 31.3407 37.7173C31.3824 37.7001 31.4202 37.6748 31.4521 37.6429C31.484 37.611 31.5093 37.5731 31.5266 37.5315C31.5438 37.4898 31.5527 37.4451 31.5527 37.4V36.0682C31.5527 34.8996 30.6019 33.9488 29.4333 33.9488H25.5749C25.2495 33.494 24.9492 33.0218 24.6753 32.5343C24.351 31.9553 24.0647 31.3558 23.8181 30.7396H34.1801C35.4742 30.7396 36.5271 29.6867 36.5271 28.3925V11.2531C36.527 9.95883 35.4741 8.90595 34.18 8.90595ZM22.2285 2.94323H26.5125C26.5191 2.94323 26.5261 2.95011 26.5261 2.95675V20.449L22.2151 16.138V13.3327H23.7385C23.8296 13.3327 23.917 13.2965 23.9814 13.2321C24.0458 13.1677 24.082 13.0803 24.082 12.9892C24.082 12.8981 24.0458 12.8108 23.9814 12.7464C23.917 12.682 23.8296 12.6458 23.7385 12.6458H22.2151V7.49811H23.7385C23.8296 7.49811 23.917 7.46192 23.9814 7.39752C24.0458 7.33311 24.082 7.24575 24.082 7.15467C24.082 7.06358 24.0458 6.97623 23.9814 6.91182C23.917 6.84741 23.8296 6.81123 23.7385 6.81123H22.2151V2.95675C22.2151 2.95003 22.2219 2.94323 22.2285 2.94323ZM21.5281 9.59291V15.451L15.6701 9.59291H21.5281ZM31.5535 26.4478H26.1769V24.9243C26.1769 24.8332 26.1407 24.7458 26.0763 24.6814C26.0119 24.617 25.9245 24.5808 25.8334 24.5808C25.7423 24.5808 25.655 24.617 25.5906 24.6814C25.5262 24.7458 25.49 24.8332 25.49 24.9243V26.4478H20.3424V24.9243C20.3424 24.8332 20.3062 24.7458 20.2418 24.6814C20.1774 24.617 20.09 24.5808 19.9989 24.5808C19.9079 24.5808 19.8205 24.617 19.7561 24.6814C19.6917 24.7458 19.6555 24.8332 19.6555 24.9243V26.4478H14.508V24.9243C14.508 24.8332 14.4718 24.7458 14.4074 24.6814C14.343 24.617 14.2556 24.5808 14.1645 24.5808C14.0735 24.5808 13.9861 24.617 13.9217 24.6814C13.8573 24.7458 13.8211 24.8332 13.8211 24.9243V26.4478H8.26046C8.25689 26.4476 8.25351 26.4461 8.25098 26.4436C8.24846 26.4411 8.24696 26.4377 8.24678 26.4341V22.5799H9.7703C9.86139 22.5799 9.94874 22.5437 10.0132 22.4793C10.0776 22.4149 10.1137 22.3275 10.1137 22.2364C10.1137 22.1453 10.0776 22.058 10.0132 21.9936C9.94874 21.9292 9.86139 21.893 9.7703 21.893H8.24678V16.7455H9.7703C9.86139 16.7455 9.94874 16.7093 10.0132 16.6449C10.0776 16.5805 10.1137 16.4931 10.1137 16.402C10.1137 16.3109 10.0776 16.2236 10.0132 16.1592C9.94874 16.0948 9.86139 16.0586 9.7703 16.0586H8.24678V10.911H9.7703C9.86139 10.911 9.94874 10.8748 10.0132 10.8104C10.0776 10.746 10.1137 10.6586 10.1137 10.5675C10.1137 10.4765 10.0776 10.3891 10.0132 10.3247C9.94874 10.2603 9.86139 10.2241 9.7703 10.2241H8.24678V3.14091L31.5535 26.4478ZM30.8658 36.0683V37.0567H9.1319V36.0683C9.1319 35.2784 9.77446 34.6359 10.5643 34.6359H29.4333C30.2232 34.6358 30.8658 35.2784 30.8658 36.0683ZM24.076 32.8701C24.283 33.2383 24.5045 33.5982 24.7398 33.9489H15.2579C15.4933 33.5982 15.7147 33.2383 15.9217 32.8701C16.3054 32.1853 16.638 31.4733 16.917 30.7396H23.0807C23.3596 31.4733 23.6923 32.1854 24.076 32.8701ZM35.8401 28.3925C35.8401 29.3079 35.0953 30.0527 34.1801 30.0527H5.81774C4.90238 30.0527 4.15766 29.3079 4.15766 28.3925V11.2531C4.15766 10.3376 4.90238 9.59291 5.81774 9.59291H7.55974V26.434C7.55974 26.8203 7.87406 27.1347 8.2603 27.1347H31.8898C31.9982 27.1349 32.1041 27.1028 32.1942 27.0427C32.2843 26.9825 32.3545 26.8968 32.3957 26.7967C32.4374 26.6966 32.4484 26.5865 32.4272 26.4802C32.4061 26.3739 32.3538 26.2763 32.277 26.1999L27.213 21.1359V9.59291H34.18C35.0953 9.59291 35.8401 10.3376 35.8401 11.2531L35.8401 28.3925ZM13.2089 22.1861H19.943C20.0514 22.1863 20.1573 22.1543 20.2474 22.0941C20.3375 22.0339 20.4077 21.9483 20.4489 21.8481C20.4906 21.7481 20.5016 21.6379 20.4804 21.5316C20.4593 21.4254 20.407 21.3278 20.3302 21.2513L13.4431 14.3642C13.3667 14.2874 13.2691 14.235 13.1628 14.2139C13.0564 14.1927 12.9463 14.2037 12.8462 14.2455C12.7461 14.2867 12.6604 14.3569 12.6002 14.4469C12.5401 14.537 12.508 14.643 12.5082 14.7513V21.4855C12.5083 21.8719 12.8225 22.1861 13.2089 22.1861ZM13.1952 15.0878L19.6065 21.4991H13.2088C13.2052 21.499 13.2019 21.4974 13.1994 21.4949C13.1968 21.4924 13.1954 21.489 13.1952 21.4855V15.0878Z" fill="#1565C0"/>
  <path d="M34.18 8.90595H27.213V2.95675C27.213 2.57051 26.8988 2.25635 26.5126 2.25635H22.2286C21.8424 2.25635 21.5282 2.57059 21.5282 2.95675V8.90603H14.9832L8.49454 2.41739C8.41811 2.34058 8.32054 2.28827 8.21427 2.26713C8.108 2.24599 7.99783 2.25697 7.89782 2.29867C7.79763 2.33991 7.71198 2.41003 7.65177 2.50012C7.59156 2.5902 7.55953 2.69616 7.55974 2.80451V8.90595H5.81774C4.52358 8.90595 3.4707 9.95883 3.4707 11.253V28.3925C3.4707 29.6867 4.52358 30.7396 5.81774 30.7396H16.1797C15.9331 31.3558 15.6468 31.9553 15.3225 32.5343C15.0486 33.0218 14.7483 33.494 14.4229 33.9488H10.5644C9.39574 33.9488 8.44502 34.8996 8.44502 36.0682V37.4C8.44502 37.4451 8.45391 37.4898 8.47117 37.5315C8.48843 37.5731 8.51372 37.611 8.54561 37.6429C8.57751 37.6748 8.61537 37.7001 8.65704 37.7173C8.6987 37.7346 8.74336 37.7435 8.78846 37.7435H31.2093C31.2544 37.7435 31.299 37.7346 31.3407 37.7173C31.3824 37.7001 31.4202 37.6748 31.4521 37.6429C31.484 37.611 31.5093 37.5731 31.5266 37.5315C31.5438 37.4898 31.5527 37.4451 31.5527 37.4V36.0682C31.5527 34.8996 30.6019 33.9488 29.4333 33.9488H25.5749C25.2495 33.494 24.9492 33.0218 24.6753 32.5343C24.351 31.9553 24.0647 31.3558 23.8181 30.7396H34.1801C35.4742 30.7396 36.5271 29.6867 36.5271 28.3925V11.2531C36.527 9.95883 35.4741 8.90595 34.18 8.90595ZM22.2285 2.94323H26.5125C26.5191 2.94323 26.5261 2.95011 26.5261 2.95675V20.449L22.2151 16.138V13.3327H23.7385C23.8296 13.3327 23.917 13.2965 23.9814 13.2321C24.0458 13.1677 24.082 13.0803 24.082 12.9892C24.082 12.8981 24.0458 12.8108 23.9814 12.7464C23.917 12.682 23.8296 12.6458 23.7385 12.6458H22.2151V7.49811H23.7385C23.8296 7.49811 23.917 7.46192 23.9814 7.39752C24.0458 7.33311 24.082 7.24575 24.082 7.15467C24.082 7.06358 24.0458 6.97623 23.9814 6.91182C23.917 6.84741 23.8296 6.81123 23.7385 6.81123H22.2151V2.95675C22.2151 2.95003 22.2219 2.94323 22.2285 2.94323ZM21.5281 9.59291V15.451L15.6701 9.59291H21.5281ZM31.5535 26.4478H26.1769V24.9243C26.1769 24.8332 26.1407 24.7458 26.0763 24.6814C26.0119 24.617 25.9245 24.5808 25.8334 24.5808C25.7423 24.5808 25.655 24.617 25.5906 24.6814C25.5262 24.7458 25.49 24.8332 25.49 24.9243V26.4478H20.3424V24.9243C20.3424 24.8332 20.3062 24.7458 20.2418 24.6814C20.1774 24.617 20.09 24.5808 19.9989 24.5808C19.9079 24.5808 19.8205 24.617 19.7561 24.6814C19.6917 24.7458 19.6555 24.8332 19.6555 24.9243V26.4478H14.508V24.9243C14.508 24.8332 14.4718 24.7458 14.4074 24.6814C14.343 24.617 14.2556 24.5808 14.1645 24.5808C14.0735 24.5808 13.9861 24.617 13.9217 24.6814C13.8573 24.7458 13.8211 24.8332 13.8211 24.9243V26.4478H8.26046C8.25689 26.4476 8.25351 26.4461 8.25098 26.4436C8.24846 26.4411 8.24696 26.4377 8.24678 26.4341V22.5799H9.7703C9.86139 22.5799 9.94874 22.5437 10.0132 22.4793C10.0776 22.4149 10.1137 22.3275 10.1137 22.2364C10.1137 22.1453 10.0776 22.058 10.0132 21.9936C9.94874 21.9292 9.86139 21.893 9.7703 21.893H8.24678V16.7455H9.7703C9.86139 16.7455 9.94874 16.7093 10.0132 16.6449C10.0776 16.5805 10.1137 16.4931 10.1137 16.402C10.1137 16.3109 10.0776 16.2236 10.0132 16.1592C9.94874 16.0948 9.86139 16.0586 9.7703 16.0586H8.24678V10.911H9.7703C9.86139 10.911 9.94874 10.8748 10.0132 10.8104C10.0776 10.746 10.1137 10.6586 10.1137 10.5675C10.1137 10.4765 10.0776 10.3891 10.0132 10.3247C9.94874 10.2603 9.86139 10.2241 9.7703 10.2241H8.24678V3.14091L31.5535 26.4478ZM30.8658 36.0683V37.0567H9.1319V36.0683C9.1319 35.2784 9.77446 34.6359 10.5643 34.6359H29.4333C30.2232 34.6358 30.8658 35.2784 30.8658 36.0683ZM24.076 32.8701C24.283 33.2383 24.5045 33.5982 24.7398 33.9489H15.2579C15.4933 33.5982 15.7147 33.2383 15.9217 32.8701C16.3054 32.1853 16.638 31.4733 16.917 30.7396H23.0807C23.3596 31.4733 23.6923 32.1854 24.076 32.8701ZM35.8401 28.3925C35.8401 29.3079 35.0953 30.0527 34.1801 30.0527H5.81774C4.90238 30.0527 4.15766 29.3079 4.15766 28.3925V11.2531C4.15766 10.3376 4.90238 9.59291 5.81774 9.59291H7.55974V26.434C7.55974 26.8203 7.87406 27.1347 8.2603 27.1347H31.8898C31.9982 27.1349 32.1041 27.1028 32.1942 27.0427C32.2843 26.9825 32.3545 26.8968 32.3957 26.7967C32.4374 26.6966 32.4484 26.5865 32.4272 26.4802C32.4061 26.3739 32.3538 26.2763 32.277 26.1999L27.213 21.1359V9.59291H34.18C35.0953 9.59291 35.8401 10.3376 35.8401 11.2531L35.8401 28.3925ZM13.2089 22.1861H19.943C20.0514 22.1863 20.1573 22.1543 20.2474 22.0941C20.3375 22.0339 20.4077 21.9483 20.4489 21.8481C20.4906 21.7481 20.5016 21.6379 20.4804 21.5316C20.4593 21.4254 20.407 21.3278 20.3302 21.2513L13.4431 14.3642C13.3667 14.2874 13.2691 14.235 13.1628 14.2139C13.0564 14.1927 12.9463 14.2037 12.8462 14.2455C12.7461 14.2867 12.6604 14.3569 12.6002 14.4469C12.5401 14.537 12.508 14.643 12.5082 14.7513V21.4855C12.5083 21.8719 12.8225 22.1861 13.2089 22.1861ZM13.1952 15.0878L19.6065 21.4991H13.2088C13.2052 21.499 13.2019 21.4974 13.1994 21.4949C13.1968 21.4924 13.1954 21.489 13.1952 21.4855V15.0878Z" stroke="#1565C0" stroke-width="0.4" mask="url(#path-1-outside-1_6357_4285)"/>
</svg>