<svg xmlns="http://www.w3.org/2000/svg" width="40" height="40" viewBox="0 0 40 40" fill="none">
  <g clip-path="url(#clip0_6357_4273)">
    <path d="M36.3401 12.1464C37.5222 14.5953 38.1326 17.2808 38.1251 20.0001C38.1275 23.4866 37.1236 26.8997 35.234 29.8296C33.3443 32.7596 30.6492 35.0819 27.4722 36.5178C24.2951 37.9536 20.7712 38.4421 17.3234 37.9244C13.8755 37.4068 10.6504 35.9051 8.03507 33.5995L9.39257 32.2445C9.47278 32.1646 9.52979 32.0645 9.5575 31.9547C9.58522 31.845 9.5826 31.7297 9.54994 31.6214C9.51728 31.513 9.45579 31.4155 9.37204 31.3393C9.2883 31.2632 9.18544 31.2112 9.07445 31.1889L4.65632 30.3033C4.55546 30.2831 4.45117 30.2881 4.35271 30.3179C4.25425 30.3477 4.16466 30.4013 4.09189 30.474C4.01912 30.5467 3.96542 30.6362 3.93556 30.7347C3.9057 30.8331 3.90059 30.9374 3.9207 31.0383L4.80007 35.4558C4.82221 35.5666 4.87397 35.6693 4.94986 35.7531C5.02575 35.8368 5.12292 35.8984 5.23104 35.9313C5.33915 35.9642 5.45416 35.9672 5.56383 35.9399C5.6735 35.9126 5.77372 35.8561 5.85382 35.7764L7.14945 34.4839C9.94 36.9645 13.3883 38.5854 17.0789 39.1513C20.7695 39.7171 24.545 39.2038 27.9505 37.6732C31.3561 36.1426 34.2465 33.6599 36.2734 30.5243C38.3004 27.3887 39.3776 23.7339 39.3751 20.0001C39.3831 17.0929 38.7304 14.2219 37.4663 11.6039L36.3401 12.1464ZM5.79757 34.0664L5.32945 31.7133L7.6832 32.1851L5.79757 34.0664ZM3.66007 27.8539C2.47791 25.405 1.86755 22.7195 1.87507 20.0001C1.87435 16.5138 2.87935 13.1012 4.76955 10.1717C6.65975 7.24217 9.35489 4.92011 12.5317 3.48399C15.7086 2.04786 19.2323 1.55864 22.6802 2.075C26.1281 2.59136 29.3539 4.09138 31.9707 6.39515L30.6076 7.75577C30.5274 7.83566 30.4704 7.93582 30.4426 8.04558C30.4149 8.15533 30.4175 8.27056 30.4502 8.37894C30.4829 8.48733 30.5444 8.58481 30.6281 8.66098C30.7118 8.73714 30.8147 8.78913 30.9257 8.8114L35.3438 9.69702C35.4447 9.71721 35.549 9.7122 35.6474 9.68242C35.7459 9.65264 35.8355 9.59902 35.9083 9.52631C35.981 9.4536 36.0347 9.36406 36.0646 9.26562C36.0944 9.16719 36.0996 9.0629 36.0794 8.96202L35.2001 4.54452C35.1779 4.4337 35.1262 4.33096 35.0503 4.24722C34.9744 4.16348 34.8772 4.10189 34.7691 4.06899C34.661 4.0361 34.546 4.03313 34.4363 4.06041C34.3266 4.08768 34.2264 4.14419 34.1463 4.2239L32.8563 5.51077C30.0643 3.03192 26.6154 1.41278 22.9247 0.848222C19.234 0.283668 15.4587 0.79776 12.0534 2.32862C8.64801 3.85949 5.75762 6.34188 3.73009 9.47704C1.70256 12.6122 0.624298 16.2665 0.625074 20.0001C0.617022 22.9074 1.2697 25.7784 2.53382 28.3964L3.66007 27.8539ZM34.2026 5.9339L34.6707 8.28702L32.3169 7.81265L34.2026 5.9339Z" fill="#1565C0"/>
    <path d="M28.2937 31.3616H28.3862C28.9906 31.3611 29.5805 31.1767 30.0776 30.8331C30.5748 30.4894 30.9557 30.0027 31.1698 29.4375C31.3838 28.8724 31.421 28.2554 31.2762 27.6687C31.1315 27.0819 30.8117 26.553 30.3593 26.1522L24.715 21.1466C24.9465 20.2676 24.9337 19.3421 24.6778 18.4699C24.4219 17.5977 23.9327 16.812 23.263 16.1974C22.5932 15.5829 21.7684 15.1629 20.8775 14.9828C19.9865 14.8026 19.0633 14.8692 18.2075 15.1754C18.1081 15.2107 18.0193 15.2706 17.9494 15.3495C17.8794 15.4284 17.8306 15.5238 17.8074 15.6266C17.7842 15.7295 17.7874 15.8366 17.8167 15.9379C17.846 16.0392 17.9004 16.1314 17.975 16.206L19.4406 17.6722L17.6731 19.4397L16.2075 17.9741C16.1329 17.8994 16.0406 17.8448 15.9392 17.8154C15.8379 17.786 15.7307 17.7828 15.6277 17.806C15.5248 17.8292 15.4294 17.8781 15.3504 17.9482C15.2715 18.0182 15.2115 18.1071 15.1762 18.2066C14.8702 19.0625 14.8036 19.9857 14.9838 20.8766C15.1639 21.7675 15.5839 22.5924 16.1984 23.2621C16.8129 23.9319 17.5986 24.4212 18.4708 24.6772C19.343 24.9331 20.2685 24.9461 21.1475 24.7147L26.1537 30.3585C26.4221 30.6641 26.7507 30.9109 27.1189 31.0836C27.4872 31.2562 27.8872 31.3508 28.2937 31.3616ZM21.3487 23.3754C21.2774 23.3755 21.2067 23.3875 21.1393 23.411C20.558 23.6198 19.934 23.6813 19.3232 23.59C18.7123 23.4987 18.1335 23.2574 17.6387 22.8877C17.1439 22.518 16.7484 22.0315 16.4876 21.4715C16.2268 20.9116 16.1089 20.2958 16.1443 19.6791L17.2312 20.7666C17.3506 20.8795 17.5087 20.9424 17.6731 20.9424C17.8374 20.9424 17.9956 20.8795 18.115 20.7666L20.7668 18.1147C20.884 17.9975 20.9498 17.8386 20.9498 17.6729C20.9498 17.5071 20.884 17.3482 20.7668 17.231L19.6793 16.1441C20.296 16.1087 20.9118 16.2266 21.4718 16.4874C22.0317 16.7482 22.5183 17.1436 22.888 17.6385C23.2576 18.1333 23.4989 18.712 23.5903 19.3229C23.6816 19.9338 23.6201 20.5578 23.4112 21.1391C23.3695 21.2565 23.3639 21.3836 23.3949 21.5042C23.426 21.6248 23.4924 21.7334 23.5856 21.816L29.5306 27.0879C29.7071 27.2444 29.8498 27.4353 29.9497 27.649C30.0497 27.8627 30.1049 28.0946 30.1119 28.3304C30.119 28.5662 30.0777 28.801 29.9906 29.0202C29.9035 29.2395 29.7725 29.4386 29.6056 29.6054C29.4401 29.7739 29.2411 29.9059 29.0215 29.9929C28.802 30.08 28.5666 30.1202 28.3306 30.111C28.0947 30.1049 27.8626 30.0501 27.6489 29.9501C27.4352 29.85 27.2445 29.7069 27.0887 29.5297L21.8162 23.5854C21.7576 23.5193 21.6856 23.4664 21.605 23.4302C21.5244 23.394 21.4371 23.3753 21.3487 23.3754Z" fill="#1565C0"/>
    <path d="M28.8287 23.1251C29.5467 21.1121 29.5583 18.9147 28.8616 16.8943C28.1648 14.8738 26.8012 13.1507 24.9951 12.0082C23.1889 10.8656 21.0476 10.3718 18.9235 10.6079C16.7994 10.844 14.8189 11.7959 13.3077 13.3072C11.7964 14.8184 10.8445 16.7989 10.6084 18.923C10.3723 21.0472 10.8661 23.1884 12.0086 24.9946C13.1511 26.8007 14.8743 28.1643 16.8948 28.8611C18.9152 29.5578 21.1126 29.5462 23.1256 28.8282L22.2218 27.8088C20.4848 28.3072 18.6315 28.2145 16.9529 27.5451C15.2744 26.8757 13.8658 25.6676 12.9485 24.1106C12.0312 22.5537 11.6571 20.7361 11.8851 18.9434C12.1131 17.1508 12.9301 15.4846 14.2079 14.2068C15.4857 12.929 17.1519 12.1119 18.9445 11.884C20.7372 11.656 22.5548 12.0301 24.1117 12.9474C25.6687 13.8647 26.8768 15.2733 27.5462 16.9518C28.2156 18.6303 28.3084 20.4837 27.8099 22.2207L28.8287 23.1251ZM28.7231 28.7226C28.8104 28.6351 28.8699 28.5238 28.8939 28.4026C28.918 28.2813 28.9056 28.1557 28.8582 28.0415C28.8109 27.9274 28.7308 27.8298 28.628 27.7612C28.5253 27.6925 28.4045 27.6559 28.2809 27.6559C28.1573 27.6559 28.0365 27.6925 27.9337 27.7612C27.831 27.8298 27.7508 27.9274 27.7035 28.0415C27.6562 28.1557 27.6438 28.2813 27.6678 28.4026C27.6919 28.5238 27.7514 28.6351 27.8387 28.7226C27.8967 28.7807 27.9657 28.8268 28.0415 28.8582C28.1174 28.8897 28.1987 28.9059 28.2809 28.9059C28.363 28.9059 28.4443 28.8897 28.5202 28.8582C28.5961 28.8268 28.665 28.7807 28.7231 28.7226Z" fill="#1565C0"/>
    <path d="M31.9131 23.125C32.4002 23.1243 32.8671 22.9305 33.2115 22.586C33.5558 22.2416 33.7495 21.7746 33.75 21.2875V18.7125C33.7495 18.2254 33.5558 17.7584 33.2115 17.414C32.8671 17.0695 32.4002 16.8757 31.9131 16.875C31.7849 16.8769 31.6593 16.8381 31.5544 16.7642C31.4496 16.6903 31.3708 16.5851 31.3294 16.4637C31.1166 15.784 30.8427 15.1248 30.5112 14.4944C30.4542 14.379 30.4351 14.2485 30.4568 14.1216C30.4785 13.9948 30.5398 13.878 30.6319 13.7881L30.6444 13.775C30.9835 13.4291 31.1725 12.9634 31.1704 12.4789C31.1683 11.9945 30.9752 11.5305 30.6331 11.1875L28.8125 9.36625C28.4623 9.03155 27.9966 8.84476 27.5122 8.84476C27.0278 8.84476 26.562 9.03155 26.2119 9.36625C26.1221 9.45829 26.0054 9.5195 25.8786 9.54106C25.7518 9.56262 25.6214 9.54343 25.5063 9.48625C24.8752 9.15457 24.2154 8.88075 23.535 8.66813C23.4143 8.62665 23.3098 8.54825 23.2362 8.44403C23.1626 8.33982 23.1237 8.21507 23.125 8.0875C23.1245 7.60042 22.9308 7.13343 22.5865 6.78896C22.2421 6.44449 21.7752 6.25066 21.2881 6.25H18.7119C18.4687 6.25106 18.2282 6.30016 18.0041 6.39449C17.78 6.48882 17.5768 6.62652 17.4061 6.79966C17.2354 6.9728 17.1006 7.17797 17.0094 7.40338C16.9183 7.62879 16.8726 7.87 16.875 8.11312C16.8771 8.23347 16.8412 8.35141 16.7723 8.45008C16.7033 8.54875 16.605 8.6231 16.4913 8.6625C15.8017 8.87616 15.1333 9.15274 14.4944 9.48875C14.3783 9.54561 14.2472 9.56415 14.1199 9.54168C13.9927 9.51922 13.8758 9.45691 13.7863 9.36375C13.4363 9.02945 12.9709 8.84291 12.4869 8.84291C12.0029 8.84291 11.5375 9.02945 11.1875 9.36375L9.36688 11.1875C9.02502 11.5304 8.83208 11.9943 8.82985 12.4785C8.82763 12.9627 9.01631 13.4283 9.355 13.7744L9.36813 13.7881C9.46021 13.8779 9.52153 13.9945 9.54331 14.1213C9.56509 14.248 9.54621 14.3784 9.48937 14.4938C9.15748 15.1246 8.88324 15.7842 8.67 16.4644C8.62867 16.5857 8.54997 16.6907 8.44521 16.7645C8.34044 16.8383 8.21499 16.877 8.08688 16.875C7.5998 16.8757 7.13287 17.0695 6.78852 17.414C6.44416 17.7584 6.2505 18.2254 6.25 18.7125V21.2875C6.2505 21.7746 6.44416 22.2416 6.78852 22.586C7.13287 22.9305 7.5998 23.1243 8.08688 23.125C8.21513 23.1231 8.34069 23.1619 8.44555 23.2358C8.55041 23.3097 8.6292 23.4149 8.67063 23.5363C8.88344 24.216 9.15726 24.8752 9.48875 25.5056C9.54581 25.621 9.56487 25.7515 9.5432 25.8784C9.52153 26.0052 9.46024 26.122 9.36813 26.2119L9.35562 26.225C9.01651 26.5709 8.8275 27.0366 8.82961 27.5211C8.83171 28.0055 9.02477 28.4695 9.36688 28.8125L11.1875 30.6338C11.5377 30.9685 12.0034 31.1552 12.4878 31.1552C12.9722 31.1552 13.438 30.9685 13.7881 30.6338C13.8781 30.542 13.9948 30.4809 14.1215 30.4594C14.2482 30.4378 14.3785 30.4569 14.4938 30.5137C15.1248 30.8454 15.7846 31.1193 16.465 31.3319C16.5857 31.3733 16.6902 31.4517 16.7638 31.556C16.8374 31.6602 16.8763 31.7849 16.875 31.9125C16.8755 32.3996 17.0692 32.8666 17.4135 33.211C17.7579 33.5555 18.2248 33.7493 18.7119 33.75H21.2881C21.7752 33.7493 22.2421 33.5555 22.5865 33.211C22.9308 32.8666 23.1245 32.3996 23.125 31.9125C23.1232 31.7845 23.1619 31.6592 23.2355 31.5545C23.3091 31.4498 23.4139 31.371 23.535 31.3294C23.9931 31.1822 24.4419 31.0073 24.8787 30.8056L24.0112 29.8281C23.7325 29.9425 23.4488 30.0469 23.1631 30.1362C22.7865 30.2553 22.458 30.4921 22.2261 30.8119C21.9942 31.1317 21.8711 31.5175 21.875 31.9125C21.8748 32.0682 21.813 32.2174 21.703 32.3275C21.593 32.4376 21.4438 32.4997 21.2881 32.5H18.7119C18.5562 32.4997 18.407 32.4376 18.297 32.3275C18.187 32.2174 18.1252 32.0682 18.125 31.9125C18.1289 31.5175 18.0058 31.1317 17.7739 30.8119C17.542 30.4921 17.2135 30.2553 16.8369 30.1362C16.229 29.946 15.6395 29.7013 15.0756 29.405C14.8137 29.2666 14.5219 29.1943 14.2256 29.1944C13.9794 29.1952 13.7358 29.2447 13.5087 29.3399C13.2817 29.4352 13.0756 29.5743 12.9025 29.7494C12.7905 29.8561 12.6416 29.9157 12.4869 29.9157C12.3321 29.9157 12.1833 29.8561 12.0712 29.7494L10.25 27.9288C10.1402 27.8183 10.0785 27.6689 10.0785 27.5131C10.0785 27.3574 10.1402 27.2079 10.25 27.0975C10.2546 27.0936 10.2588 27.0892 10.2625 27.0844C10.5409 26.8067 10.7233 26.4472 10.783 26.0585C10.8427 25.6698 10.7766 25.2722 10.5944 24.9237C10.298 24.3602 10.0532 23.7709 9.86313 23.1631C9.7441 22.7865 9.50725 22.458 9.18747 22.2261C8.86769 21.9942 8.48188 21.8711 8.08688 21.875C7.93122 21.8747 7.78204 21.8126 7.67204 21.7025C7.56203 21.5924 7.50017 21.4432 7.5 21.2875V18.7125C7.50017 18.5568 7.56203 18.4076 7.67204 18.2975C7.78204 18.1874 7.93122 18.1253 8.08688 18.125C8.48182 18.129 8.86762 18.0061 9.18741 17.7743C9.50721 17.5425 9.74408 17.2141 9.86313 16.8375C10.0536 16.2293 10.2988 15.6396 10.5956 15.0756C10.7774 14.7273 10.8432 14.33 10.7837 13.9417C10.7241 13.5533 10.5422 13.1941 10.2644 12.9163L10.2506 12.9025C10.1408 12.7921 10.0791 12.6426 10.0791 12.4869C10.0791 12.3311 10.1408 12.1817 10.2506 12.0712L12.0712 10.25C12.1831 10.1423 12.3323 10.0821 12.4875 10.0821C12.6427 10.0821 12.7919 10.1423 12.9037 10.25C13.1814 10.5323 13.5424 10.7179 13.9335 10.7796C14.3246 10.8412 14.7252 10.7757 15.0763 10.5925C15.6474 10.2922 16.2449 10.0449 16.8612 9.85375C17.2344 9.73531 17.5592 9.49925 17.787 9.18086C18.0148 8.86248 18.1334 8.4789 18.125 8.0875C18.1252 7.93184 18.187 7.7826 18.297 7.67248C18.407 7.56235 18.5562 7.50033 18.7119 7.5H21.2881C21.4438 7.50033 21.593 7.56235 21.703 7.67248C21.813 7.7826 21.8748 7.93184 21.875 8.0875C21.8711 8.4825 21.9942 8.86831 22.2261 9.1881C22.458 9.50788 22.7865 9.74473 23.1631 9.86375C23.771 10.054 24.3605 10.2987 24.9244 10.595C25.2756 10.7783 25.6765 10.8438 26.0678 10.7817C26.4591 10.7197 26.8201 10.5335 27.0975 10.2506C27.2095 10.1439 27.3584 10.0843 27.5131 10.0843C27.6679 10.0843 27.8167 10.1439 27.9288 10.2506L29.75 12.0712C29.8598 12.1817 29.9215 12.3311 29.9215 12.4869C29.9215 12.6426 29.8598 12.7921 29.75 12.9025C29.7454 12.9064 29.7412 12.9108 29.7375 12.9156C29.4591 13.1933 29.2767 13.5528 29.217 13.9415C29.1573 14.3302 29.2234 14.7278 29.4056 15.0763C29.702 15.6398 29.9468 16.2291 30.1369 16.8369C30.2559 17.2135 30.4927 17.542 30.8125 17.7739C31.1323 18.0058 31.5181 18.1289 31.9131 18.125C32.0688 18.1253 32.218 18.1874 32.328 18.2975C32.438 18.4076 32.4998 18.5568 32.5 18.7125V21.2875C32.4991 21.3666 32.4825 21.4447 32.451 21.5172C32.4196 21.5898 32.374 21.6554 32.3169 21.7101C32.2598 21.7648 32.1923 21.8076 32.1185 21.8359C32.0447 21.8642 31.9659 21.8775 31.8869 21.875C31.4999 21.8743 31.1226 21.9963 30.8093 22.2235C30.496 22.4507 30.2627 22.7713 30.1431 23.1394C30.0513 23.4343 29.947 23.7252 29.8306 24.0112L30.805 24.875C31.0111 24.4306 31.189 23.9737 31.3375 23.5069C31.3798 23.3899 31.4586 23.2897 31.5623 23.2209C31.6659 23.1521 31.7889 23.1185 31.9131 23.125Z" fill="#1565C0"/>
  </g>
  <defs>
    <clipPath id="clip0_6357_4273">
      <rect width="40" height="40" fill="white"/>
    </clipPath>
  </defs>
</svg>