<svg xmlns="http://www.w3.org/2000/svg" width="40" height="40" viewBox="0 0 40 40" fill="none">
  <g clip-path="url(#clip0_6357_4264)">
    <path d="M30.5105 26.3825C31.1653 25.3092 31.6496 24.1407 31.9461 22.9189H33.7463C33.912 22.9189 34.071 22.8531 34.1882 22.7358C34.3054 22.6186 34.3713 22.4597 34.3713 22.2939V17.706C34.3713 17.5403 34.3054 17.3813 34.1882 17.2641C34.071 17.1469 33.912 17.081 33.7463 17.081H31.946C31.6495 15.8592 31.1652 14.6909 30.5105 13.6176L31.7841 12.3439C31.8422 12.2859 31.8882 12.217 31.9197 12.1411C31.9511 12.0653 31.9672 11.984 31.9672 11.902C31.9672 11.8199 31.9511 11.7386 31.9197 11.6628C31.8882 11.5869 31.8422 11.518 31.7841 11.46L28.5401 8.21586C28.482 8.15782 28.4131 8.11178 28.3373 8.08037C28.2615 8.04896 28.1802 8.03279 28.0981 8.03279C28.016 8.03279 27.9348 8.04896 27.8589 8.08037C27.7831 8.11178 27.7142 8.15782 27.6562 8.21586L26.3824 9.48961C25.3091 8.83481 24.1407 8.35048 22.9189 8.05391V6.25367C22.9189 6.08791 22.8531 5.92894 22.7358 5.81173C22.6186 5.69452 22.4597 5.62867 22.2939 5.62867H17.7061C17.5403 5.62867 17.3814 5.69452 17.2642 5.81173C17.1469 5.92894 17.0811 6.08791 17.0811 6.25367V8.05391C15.8593 8.35045 14.6908 8.83475 13.6175 9.48953L12.3438 8.21586C12.2266 8.0987 12.0676 8.03289 11.9019 8.03289C11.7362 8.03289 11.5772 8.0987 11.46 8.21586L8.21586 11.4598C8.09868 11.5771 8.03285 11.736 8.03285 11.9018C8.03285 12.0676 8.09868 12.2265 8.21586 12.3438L9.48953 13.6174C8.83469 14.6907 8.35033 15.8592 8.05375 17.081H6.25367C6.08791 17.081 5.92894 17.1469 5.81173 17.2641C5.69452 17.3813 5.62867 17.5403 5.62867 17.706V22.2939C5.62867 22.4597 5.69452 22.6186 5.81173 22.7358C5.92894 22.8531 6.08791 22.9189 6.25367 22.9189H8.05375C8.3503 24.1408 8.8346 25.3092 9.48938 26.3826L8.21586 27.6561C8.15782 27.7141 8.11178 27.783 8.08037 27.8588C8.04896 27.9347 8.0328 28.0159 8.0328 28.098C8.0328 28.1801 8.04896 28.2613 8.08037 28.3372C8.11178 28.413 8.15782 28.4819 8.21586 28.5399L11.4599 31.7841C11.5179 31.8421 11.5868 31.8882 11.6627 31.9196C11.7385 31.9511 11.8198 31.9673 11.9019 31.9673C11.9839 31.9673 12.0652 31.9511 12.1411 31.9197C12.2169 31.8883 12.2858 31.8422 12.3438 31.7841L13.6174 30.5105C14.6908 31.1653 15.8592 31.6496 17.0811 31.9462V33.7463C17.0811 33.912 17.1469 34.071 17.2642 34.1882C17.3814 34.3054 17.5403 34.3713 17.7061 34.3713H22.2939C22.4597 34.3713 22.6186 34.3054 22.7358 34.1882C22.8531 34.071 22.9189 33.912 22.9189 33.7463V31.9461C24.1407 31.6495 25.3092 31.1652 26.3825 30.5105L27.656 31.7841C27.7732 31.9013 27.9322 31.9671 28.0979 31.9671C28.2637 31.9671 28.4226 31.9013 28.5398 31.7841L31.784 28.54C31.9012 28.4228 31.967 28.2638 31.967 28.098C31.967 27.9323 31.9012 27.7733 31.784 27.6561L30.5105 26.3825ZM28.098 30.4583L26.9116 29.2717C26.8093 29.1696 26.6749 29.106 26.531 29.0918C26.3872 29.0776 26.2429 29.1136 26.1227 29.1938C24.9181 29.9979 23.5887 30.5488 22.1716 30.8315C22.0299 30.8598 21.9023 30.9363 21.8107 31.0481C21.719 31.1598 21.6689 31.2999 21.6689 31.4445V33.1213H18.3311V31.4445C18.3311 31.2999 18.281 31.1598 18.1893 31.048C18.0976 30.9363 17.97 30.8597 17.8282 30.8315C16.412 30.5493 15.0827 29.9983 13.8772 29.1939C13.757 29.1137 13.6127 29.0776 13.4688 29.0918C13.325 29.106 13.1906 29.1696 13.0884 29.2718L11.9019 30.4584L9.54172 28.098L10.7281 26.9116C10.8303 26.8094 10.894 26.6749 10.9082 26.5311C10.9224 26.3872 10.8863 26.2429 10.8061 26.1227C10.002 24.918 9.45109 23.5886 9.16852 22.1716C9.14024 22.0299 9.06371 21.9023 8.95194 21.8106C8.84018 21.7189 8.7001 21.6688 8.55555 21.6688H6.87867V18.3309H8.55547C8.70003 18.3309 8.84012 18.2808 8.95188 18.1892C9.06365 18.0975 9.14018 17.9699 9.16844 17.8281C9.45078 16.4117 10.0018 15.0824 10.8061 13.8771C10.8863 13.7569 10.9224 13.6126 10.9082 13.4687C10.894 13.3249 10.8303 13.1904 10.7281 13.0882L9.54156 11.9016L11.9018 9.54148L13.0884 10.728C13.1906 10.8302 13.3251 10.8938 13.4689 10.908C13.6127 10.9222 13.757 10.8861 13.8773 10.8059C15.082 10.002 16.4113 9.45094 17.8283 9.16844C17.97 9.14018 18.0976 9.06365 18.1893 8.95188C18.281 8.84012 18.3311 8.70003 18.3311 8.55547V6.87867H21.6689V8.5557C21.6689 8.70026 21.719 8.84035 21.8107 8.95212C21.9024 9.06388 22.03 9.14041 22.1717 9.16867C23.588 9.45102 24.9173 10.002 26.1227 10.8063C26.2429 10.8865 26.3872 10.9226 26.531 10.9084C26.6748 10.8942 26.8093 10.8306 26.9115 10.7284L28.098 9.5418L30.4583 11.9021L29.2717 13.0887C29.1695 13.1909 29.1059 13.3254 29.0917 13.4692C29.0775 13.6131 29.1136 13.7574 29.1938 13.8777C29.9978 15.0822 30.5487 16.4114 30.8313 17.8284C30.8596 17.9702 30.9361 18.0978 31.0479 18.1894C31.1596 18.2811 31.2997 18.3312 31.4442 18.3312H33.1213V21.6691H31.4443C31.2997 21.6691 31.1596 21.7193 31.0479 21.8109C30.9361 21.9026 30.8596 22.0302 30.8313 22.172C30.5491 23.5883 29.998 24.9177 29.1937 26.123C29.1135 26.2432 29.0775 26.3875 29.0917 26.5314C29.1059 26.6752 29.1695 26.8097 29.2717 26.9119L30.4582 28.0984L28.098 30.4583ZM20 12.2508C15.727 12.2508 12.2508 15.7271 12.2508 20C12.2508 24.2729 15.7271 27.7492 20 27.7492C24.2729 27.7492 27.7492 24.2729 27.7492 20C27.7492 15.7271 24.273 12.2508 20 12.2508ZM18.9193 26.4077V21.4766C18.9193 21.3108 18.8534 21.1518 18.7362 21.0346C18.619 20.9174 18.4601 20.8516 18.2943 20.8516H16.9774L20 16.9399L23.0227 20.8516H21.7058C21.54 20.8516 21.3811 20.9174 21.2638 21.0346C21.1466 21.1518 21.0808 21.3108 21.0808 21.4766V26.4077C20.7237 26.4682 20.3622 26.4988 20.0001 26.4992C19.6317 26.4992 19.271 26.4669 18.9193 26.4077ZM22.3307 26.0654V22.1016H23.373C23.7876 22.1016 24.1589 21.8699 24.3422 21.4969C24.5241 21.1266 24.4796 20.6926 24.2259 20.3645L20.853 15.9996C20.7527 15.8688 20.6235 15.7629 20.4756 15.6902C20.3276 15.6176 20.1649 15.58 20 15.5805C19.8352 15.58 19.6724 15.6176 19.5245 15.6902C19.3765 15.7629 19.2474 15.8688 19.147 15.9995L15.7742 20.3645C15.5206 20.6926 15.476 21.1265 15.6578 21.4967C15.8411 21.8698 16.2125 22.1016 16.6271 22.1016H17.6694V26.0654C15.234 25.1263 13.5008 22.7624 13.5008 20C13.5008 16.4163 16.4163 13.5008 20 13.5008C23.5837 13.5008 26.4992 16.4163 26.4992 20C26.4992 22.7624 24.7661 25.1262 22.3307 26.0654ZM36.951 33.3795C36.9576 33.4613 36.948 33.5437 36.9227 33.6218C36.8975 33.6999 36.8571 33.7722 36.8039 33.8347C36.7507 33.8972 36.6857 33.9486 36.6127 33.986C36.5396 34.0234 36.4599 34.046 36.378 34.0526L33.695 34.268C33.6048 34.2752 33.5141 34.2628 33.4291 34.2315C33.3442 34.2003 33.267 34.1509 33.203 34.0869C33.139 34.0229 33.0897 33.9458 33.0584 33.8608C33.0272 33.7759 33.0148 33.6851 33.022 33.5949L33.2373 30.9118C33.243 30.8294 33.2651 30.749 33.3022 30.6751C33.3392 30.6013 33.3905 30.5356 33.4532 30.4817C33.5158 30.4279 33.5885 30.3869 33.667 30.3613C33.7455 30.3357 33.8284 30.3259 33.9107 30.3325C33.993 30.3391 34.0732 30.362 34.1467 30.3998C34.2201 30.4376 34.2854 30.4896 34.3386 30.5527C34.3918 30.6159 34.432 30.689 34.4569 30.7677C34.4817 30.8465 34.4906 30.9295 34.4832 31.0117L34.4145 31.8672C37.1693 28.5302 38.6719 24.3694 38.6719 20C38.6719 16.1729 37.5213 12.4938 35.3445 9.36047C35.2977 9.29307 35.2646 9.21709 35.2471 9.1369C35.2296 9.0567 35.2281 8.97385 35.2427 8.89306C35.2572 8.81228 35.2875 8.73516 35.3319 8.6661C35.3762 8.59703 35.4338 8.53738 35.5012 8.49055C35.7846 8.29383 36.1741 8.36383 36.371 8.64727C38.694 11.9909 39.9219 15.9166 39.9219 20C39.9219 24.764 38.2475 29.2955 35.1842 32.8944L36.278 32.8066C36.4433 32.7933 36.607 32.8462 36.7332 32.9537C36.8594 33.0611 36.9377 33.2143 36.951 33.3795ZM5.5168 8.98812L5.58539 8.13273C2.8307 11.4698 1.32812 15.6307 1.32812 20C1.32812 23.827 2.47875 27.506 4.65555 30.6395C4.72068 30.7332 4.75892 30.843 4.7661 30.9569C4.77329 31.0708 4.74916 31.1845 4.69632 31.2856C4.64348 31.3868 4.56395 31.4715 4.46637 31.5307C4.36878 31.5899 4.25686 31.6212 4.14273 31.6213C4.04175 31.6214 3.94225 31.597 3.85275 31.5503C3.76325 31.5035 3.68644 31.4357 3.62891 31.3527C1.30602 28.0088 0.078125 24.0831 0.078125 20C0.078125 15.236 1.75258 10.7045 4.81594 7.10555L3.72195 7.19336C3.37852 7.22219 3.07664 6.9643 3.04898 6.62031C3.04241 6.5385 3.05202 6.4562 3.07726 6.3781C3.1025 6.3 3.14287 6.22764 3.19608 6.16515C3.24928 6.10266 3.31428 6.05126 3.38735 6.01389C3.46042 5.97651 3.54014 5.9539 3.62195 5.94734L6.305 5.73203C6.39519 5.72498 6.48583 5.73751 6.57073 5.76875C6.65563 5.8 6.73277 5.84922 6.79688 5.91305C6.86088 5.97704 6.91021 6.05418 6.94147 6.13912C6.97272 6.22406 6.98515 6.31478 6.97789 6.405L6.76266 9.08805C6.75611 9.16986 6.7335 9.24958 6.69614 9.32265C6.65878 9.39573 6.60739 9.46073 6.5449 9.51394C6.48242 9.56716 6.41006 9.60754 6.33197 9.63279C6.25388 9.65804 6.17158 9.66766 6.08977 9.66109C5.92455 9.64783 5.77136 9.56947 5.66391 9.44327C5.55646 9.31706 5.50354 9.15335 5.5168 8.98812ZM8.49063 4.49883C8.44379 4.43142 8.41069 4.35545 8.39321 4.27526C8.37573 4.19506 8.37422 4.1122 8.38877 4.03142C8.40332 3.95064 8.43363 3.87352 8.47798 3.80446C8.52234 3.73539 8.57986 3.67574 8.64727 3.62891C11.9911 1.30602 15.9168 0.078125 20 0.078125C24.764 0.078125 29.2955 1.7525 32.8945 4.81586L32.8067 3.72187C32.8001 3.64006 32.8098 3.55776 32.835 3.47966C32.8602 3.40157 32.9006 3.3292 32.9538 3.26671C33.007 3.20422 33.072 3.15282 33.1451 3.11545C33.2182 3.07808 33.2979 3.05547 33.3797 3.04891C33.7236 3.02109 34.025 3.27789 34.0527 3.62195L34.268 6.30508C34.2752 6.3953 34.2628 6.48602 34.2316 6.57097C34.2003 6.65591 34.151 6.73306 34.087 6.79707C34.023 6.86108 33.9459 6.91042 33.861 6.94168C33.776 6.97294 33.6853 6.98538 33.5951 6.97813L30.912 6.76281C30.7468 6.74954 30.5936 6.67119 30.4862 6.54499C30.3787 6.41878 30.3258 6.25506 30.3391 6.08984C30.3666 5.74578 30.6687 5.48875 31.012 5.5168L31.8675 5.58547C28.5302 2.8307 24.3694 1.32812 20 1.32812C16.173 1.32812 12.4938 2.47875 9.36047 4.65555C9.22434 4.75011 9.05622 4.78672 8.89309 4.75733C8.72997 4.72794 8.5852 4.63495 8.49063 4.49883ZM31.5094 35.5012C31.5562 35.5686 31.5893 35.6445 31.6068 35.7247C31.6243 35.8049 31.6258 35.8878 31.6112 35.9686C31.5967 36.0494 31.5664 36.1265 31.522 36.1955C31.4777 36.2646 31.4201 36.3243 31.3527 36.3711C28.0089 38.694 24.0832 39.9219 20 39.9219C15.2361 39.9219 10.7046 38.2475 7.10563 35.1842L7.19336 36.278C7.20027 36.3641 7.18927 36.4507 7.16105 36.5323C7.13283 36.6139 7.08801 36.6888 7.02941 36.7522C6.97081 36.8156 6.89971 36.8662 6.82058 36.9007C6.74146 36.9353 6.65603 36.9531 6.56969 36.953C6.41271 36.9528 6.26155 36.8935 6.14625 36.787C6.03096 36.6805 5.95998 36.5344 5.94742 36.378L5.73211 33.6949C5.72485 33.6047 5.73727 33.514 5.76852 33.4291C5.79976 33.3441 5.84909 33.267 5.91308 33.203C5.97707 33.139 6.05421 33.0896 6.13914 33.0584C6.22408 33.0271 6.31479 33.0147 6.405 33.022L9.08805 33.2372C9.25327 33.2505 9.40645 33.3288 9.5139 33.455C9.62135 33.5812 9.67427 33.7449 9.66102 33.9102C9.64771 34.0754 9.56934 34.2285 9.44315 34.336C9.31696 34.4434 9.15326 34.4964 8.98805 34.4832L8.13258 34.4146C11.4699 37.1693 15.6308 38.6719 20 38.6719C23.827 38.6719 27.5062 37.5213 30.6395 35.3445C30.923 35.1478 31.3125 35.2177 31.5094 35.5012Z" fill="#1565C0"/>
  </g>
  <defs>
    <clipPath id="clip0_6357_4264">
      <rect width="40" height="40" fill="white"/>
    </clipPath>
  </defs>
</svg>