<svg xmlns="http://www.w3.org/2000/svg" width="24" height="25" viewBox="0 0 24 25" fill="none">
  <path d="M16.875 23.75H9.375V20.75H16.875V23.75ZM10.125 23H16.125V21.5H10.125V23ZM12.2625 1.25H12C7.65 1.25 4.125 4.775 4.125 9.125C4.125 12.0125 5.7 14.5625 8.0625 15.9125C8.1375 15.6875 8.2875 15.4625 8.475 15.275C8.025 15.0125 7.6125 14.7125 7.2375 14.375C7.6875 14.15 8.175 13.9625 8.625 13.8125C8.7375 14.15 8.8875 14.4875 9.075 14.825L9.45 14.5625L9.4875 13.9625L9.375 13.625C9.4125 13.625 9.4875 13.5875 9.525 13.5875L9.5625 12.8L9.1125 12.9125C8.8125 11.9 8.6625 10.7 8.6625 9.5375H10.125C10.4625 9.0875 11.025 8.7875 11.625 8.7875H8.625C8.6625 7.55 8.8125 6.3875 9.075 5.4125C10.05 5.675 11.025 5.7875 11.9625 5.7875C12.9375 5.7875 13.9125 5.675 14.85 5.4125C15.15 6.425 15.3 7.625 15.3 8.7875H11.625C12.225 8.7875 12.7875 9.0875 13.125 9.5375H15.375C15.3375 10.775 15.1875 11.9375 14.925 12.9125C14.5125 12.8 14.1375 12.725 13.725 12.65L13.8 13.4375C14.1 13.475 14.4 13.55 14.7 13.625C14.6625 13.7 14.6625 13.7375 14.625 13.775L15.375 13.8875C15.375 13.85 15.375 13.85 15.4125 13.8125L15.75 13.925C15.975 13.9625 16.2 14.075 16.3875 14.1875C16.5375 14.2625 16.6875 14.3 16.8 14.375C16.7625 14.4125 16.725 14.4125 16.6875 14.45C16.875 14.6375 17.025 14.8625 17.1 15.0875C18.7875 13.6625 19.875 11.525 19.875 9.125C19.875 4.8875 16.5 1.4 12.2625 1.25ZM6.6375 4.4375C7.2 4.7375 7.8 4.9625 8.3625 5.15C8.0625 6.2375 7.9125 7.4375 7.875 8.75H4.875C4.9875 7.1 5.625 5.6 6.6375 4.4375ZM6.6375 13.8125C5.625 12.65 4.95 11.15 4.875 9.5H7.875C7.9125 10.7375 8.0625 11.975 8.3625 13.1C7.8 13.2875 7.2375 13.55 6.6375 13.8125ZM8.85 3.8C8.775 3.9875 8.7 4.2125 8.625 4.4C8.175 4.25 7.6875 4.0625 7.2375 3.8375C7.95 3.1625 8.8125 2.675 9.75 2.3375C9.4125 2.75 9.1125 3.2375 8.85 3.8ZM9.3375 4.625C9.4125 4.4375 9.4875 4.2875 9.5625 4.1C9.975 3.1625 10.725 2 12 2C13.2 2 14.1 3.0875 14.6625 4.625C12.9 5.1125 11.1 5.1125 9.3375 4.625ZM15.375 4.4375C15.075 3.6125 14.7 2.9375 14.25 2.375C15.1875 2.7125 16.05 3.2 16.7625 3.875C16.3125 4.1 15.8625 4.2875 15.375 4.4375ZM17.3625 4.4375C18.375 5.6 19.05 7.1 19.125 8.75H16.125C16.0875 7.5125 15.9375 6.275 15.6375 5.15C16.2 4.9625 16.7625 4.7 17.3625 4.4375ZM17.3625 13.8125C16.8 13.5125 16.2 13.2875 15.6375 13.1C15.9375 12.0125 16.0875 10.8125 16.125 9.5H19.125C19.0125 11.15 18.375 12.65 17.3625 13.8125Z" fill="url(#paint0_linear_6357_5809)"/>
  <path d="M15.5244 14.675L13.0869 14.3375L12.7869 10.55C12.7494 9.95 12.2619 9.5 11.6619 9.5H11.5494C10.9494 9.5 10.4619 9.95 10.4244 10.55L10.1244 14.9375L9.11187 15.6875C8.77437 15.95 8.62438 16.3625 8.66188 16.775L8.81187 17.675C8.92437 18.35 9.29938 18.95 9.82438 19.325L10.6869 20H15.5619L16.0869 18.9125C16.3119 18.4625 16.4619 17.9375 16.4619 17.4125V15.7625C16.4994 15.2375 16.0869 14.75 15.5244 14.675ZM15.7494 17.4125C15.7494 17.825 15.6369 18.2375 15.4869 18.575L15.1494 19.25H11.0244L10.3494 18.725C9.97438 18.425 9.71188 18.0125 9.63688 17.525L9.44938 16.625C9.41188 16.475 9.48688 16.3625 9.59938 16.25L10.1244 15.875V17H10.8744V15.125L11.2119 10.5875C11.2119 10.4 11.3994 10.25 11.5869 10.25H11.6994C11.8869 10.25 12.0744 10.4 12.0744 10.5875L12.3744 14.975L15.4119 15.425C15.5994 15.4625 15.7494 15.6125 15.7494 15.8V17.4125Z" fill="url(#paint1_linear_6357_5809)"/>
  <defs>
    <linearGradient id="paint0_linear_6357_5809" x1="19.875" y1="23.75" x2="1.84668" y2="21.746" gradientUnits="userSpaceOnUse">
      <stop stop-color="#1565C0"/>
      <stop offset="1" stop-color="#4A90E2"/>
    </linearGradient>
    <linearGradient id="paint1_linear_6357_5809" x1="16.4642" y1="20" x2="7.54078" y2="18.9463" gradientUnits="userSpaceOnUse">
      <stop stop-color="#1565C0"/>
      <stop offset="1" stop-color="#4A90E2"/>
    </linearGradient>
  </defs>
</svg>